<mxfile host="app.diagrams.net" agent="Mozilla/5.0 (Windows NT 10.0; Win64; x64) AppleWebKit/537.36 (KHTML, like Gecko) Chrome/138.0.0.0 Safari/537.36" version="28.0.7">
  <diagram name="Page-1" id="JCh5sTHOnHjRY5-BRINA">
    <mxGraphModel dx="1025" dy="425" grid="1" gridSize="10" guides="1" tooltips="1" connect="1" arrows="1" fold="1" page="1" pageScale="1" pageWidth="850" pageHeight="1100" math="0" shadow="0">
      <root>
        <mxCell id="0" />
        <mxCell id="1" parent="0" />
        <mxCell id="P6JfIa1zerB7Pb0dLOE2-5" style="edgeStyle=orthogonalEdgeStyle;rounded=0;orthogonalLoop=1;jettySize=auto;html=1;exitX=0.5;exitY=1;exitDx=0;exitDy=0;entryX=0.5;entryY=0;entryDx=0;entryDy=0;" edge="1" parent="1" source="P6JfIa1zerB7Pb0dLOE2-1" target="P6JfIa1zerB7Pb0dLOE2-3">
          <mxGeometry relative="1" as="geometry" />
        </mxCell>
        <mxCell id="P6JfIa1zerB7Pb0dLOE2-1" value="Mulai" style="rounded=1;whiteSpace=wrap;html=1;" vertex="1" parent="1">
          <mxGeometry x="290" y="30" width="120" height="60" as="geometry" />
        </mxCell>
        <mxCell id="P6JfIa1zerB7Pb0dLOE2-6" style="edgeStyle=orthogonalEdgeStyle;rounded=0;orthogonalLoop=1;jettySize=auto;html=1;exitX=0.5;exitY=1;exitDx=0;exitDy=0;entryX=0.5;entryY=0;entryDx=0;entryDy=0;" edge="1" parent="1" source="P6JfIa1zerB7Pb0dLOE2-3" target="P6JfIa1zerB7Pb0dLOE2-4">
          <mxGeometry relative="1" as="geometry" />
        </mxCell>
        <mxCell id="P6JfIa1zerB7Pb0dLOE2-3" value="Login/register" style="ellipse;whiteSpace=wrap;html=1;" vertex="1" parent="1">
          <mxGeometry x="290" y="110" width="120" height="80" as="geometry" />
        </mxCell>
        <mxCell id="P6JfIa1zerB7Pb0dLOE2-8" style="edgeStyle=orthogonalEdgeStyle;rounded=0;orthogonalLoop=1;jettySize=auto;html=1;exitX=0;exitY=1;exitDx=0;exitDy=0;entryX=0.5;entryY=0;entryDx=0;entryDy=0;" edge="1" parent="1" source="P6JfIa1zerB7Pb0dLOE2-4" target="P6JfIa1zerB7Pb0dLOE2-7">
          <mxGeometry relative="1" as="geometry" />
        </mxCell>
        <mxCell id="P6JfIa1zerB7Pb0dLOE2-12" style="edgeStyle=orthogonalEdgeStyle;rounded=0;orthogonalLoop=1;jettySize=auto;html=1;exitX=1;exitY=1;exitDx=0;exitDy=0;entryX=0.5;entryY=0;entryDx=0;entryDy=0;" edge="1" parent="1" source="P6JfIa1zerB7Pb0dLOE2-4" target="P6JfIa1zerB7Pb0dLOE2-11">
          <mxGeometry relative="1" as="geometry" />
        </mxCell>
        <mxCell id="P6JfIa1zerB7Pb0dLOE2-4" value="role:&lt;div&gt;penjual atau pembeli&lt;/div&gt;" style="rhombus;whiteSpace=wrap;html=1;" vertex="1" parent="1">
          <mxGeometry x="270" y="220" width="160" height="100" as="geometry" />
        </mxCell>
        <mxCell id="P6JfIa1zerB7Pb0dLOE2-15" style="edgeStyle=orthogonalEdgeStyle;rounded=0;orthogonalLoop=1;jettySize=auto;html=1;exitX=0.5;exitY=1;exitDx=0;exitDy=0;entryX=0.5;entryY=0;entryDx=0;entryDy=0;" edge="1" parent="1" source="P6JfIa1zerB7Pb0dLOE2-7" target="P6JfIa1zerB7Pb0dLOE2-14">
          <mxGeometry relative="1" as="geometry" />
        </mxCell>
        <mxCell id="P6JfIa1zerB7Pb0dLOE2-7" value="Penjual" style="ellipse;whiteSpace=wrap;html=1;" vertex="1" parent="1">
          <mxGeometry x="110" y="340" width="120" height="80" as="geometry" />
        </mxCell>
        <mxCell id="P6JfIa1zerB7Pb0dLOE2-11" value="Pembeli" style="ellipse;whiteSpace=wrap;html=1;" vertex="1" parent="1">
          <mxGeometry x="480" y="350" width="120" height="80" as="geometry" />
        </mxCell>
        <mxCell id="P6JfIa1zerB7Pb0dLOE2-20" style="edgeStyle=orthogonalEdgeStyle;rounded=0;orthogonalLoop=1;jettySize=auto;html=1;exitX=0.5;exitY=1;exitDx=0;exitDy=0;entryX=0.5;entryY=0;entryDx=0;entryDy=0;" edge="1" parent="1" source="P6JfIa1zerB7Pb0dLOE2-14" target="P6JfIa1zerB7Pb0dLOE2-18">
          <mxGeometry relative="1" as="geometry" />
        </mxCell>
        <mxCell id="P6JfIa1zerB7Pb0dLOE2-14" value="Tambah barang lelang" style="rounded=0;whiteSpace=wrap;html=1;" vertex="1" parent="1">
          <mxGeometry x="110" y="500" width="120" height="60" as="geometry" />
        </mxCell>
        <mxCell id="P6JfIa1zerB7Pb0dLOE2-22" style="edgeStyle=orthogonalEdgeStyle;rounded=0;orthogonalLoop=1;jettySize=auto;html=1;exitX=0.5;exitY=1;exitDx=0;exitDy=0;entryX=0.5;entryY=0;entryDx=0;entryDy=0;" edge="1" parent="1" source="P6JfIa1zerB7Pb0dLOE2-16" target="P6JfIa1zerB7Pb0dLOE2-19">
          <mxGeometry relative="1" as="geometry" />
        </mxCell>
        <mxCell id="P6JfIa1zerB7Pb0dLOE2-16" value="Lihat daftar barang" style="rounded=0;whiteSpace=wrap;html=1;" vertex="1" parent="1">
          <mxGeometry x="470" y="500" width="120" height="60" as="geometry" />
        </mxCell>
        <mxCell id="P6JfIa1zerB7Pb0dLOE2-17" style="edgeStyle=orthogonalEdgeStyle;rounded=0;orthogonalLoop=1;jettySize=auto;html=1;exitX=0.5;exitY=1;exitDx=0;exitDy=0;entryX=0.581;entryY=0.044;entryDx=0;entryDy=0;entryPerimeter=0;" edge="1" parent="1" source="P6JfIa1zerB7Pb0dLOE2-11" target="P6JfIa1zerB7Pb0dLOE2-16">
          <mxGeometry relative="1" as="geometry" />
        </mxCell>
        <mxCell id="P6JfIa1zerB7Pb0dLOE2-21" style="edgeStyle=orthogonalEdgeStyle;rounded=0;orthogonalLoop=1;jettySize=auto;html=1;exitX=1;exitY=0.5;exitDx=0;exitDy=0;entryX=0;entryY=0.5;entryDx=0;entryDy=0;" edge="1" parent="1" source="P6JfIa1zerB7Pb0dLOE2-18" target="P6JfIa1zerB7Pb0dLOE2-19">
          <mxGeometry relative="1" as="geometry" />
        </mxCell>
        <mxCell id="P6JfIa1zerB7Pb0dLOE2-18" value="Barang aktif&amp;nbsp;&lt;div&gt;di lelang&lt;/div&gt;" style="shape=parallelogram;perimeter=parallelogramPerimeter;whiteSpace=wrap;html=1;fixedSize=1;" vertex="1" parent="1">
          <mxGeometry x="110" y="630" width="120" height="60" as="geometry" />
        </mxCell>
        <mxCell id="P6JfIa1zerB7Pb0dLOE2-29" style="edgeStyle=orthogonalEdgeStyle;rounded=0;orthogonalLoop=1;jettySize=auto;html=1;exitX=0.5;exitY=1;exitDx=0;exitDy=0;entryX=0.5;entryY=0;entryDx=0;entryDy=0;" edge="1" parent="1" source="P6JfIa1zerB7Pb0dLOE2-19" target="P6JfIa1zerB7Pb0dLOE2-23">
          <mxGeometry relative="1" as="geometry" />
        </mxCell>
        <mxCell id="P6JfIa1zerB7Pb0dLOE2-19" value="Ajukan penawaran" style="shape=parallelogram;perimeter=parallelogramPerimeter;whiteSpace=wrap;html=1;fixedSize=1;" vertex="1" parent="1">
          <mxGeometry x="470" y="630" width="120" height="60" as="geometry" />
        </mxCell>
        <mxCell id="P6JfIa1zerB7Pb0dLOE2-30" style="edgeStyle=orthogonalEdgeStyle;rounded=0;orthogonalLoop=1;jettySize=auto;html=1;exitX=0.5;exitY=1;exitDx=0;exitDy=0;entryX=0.5;entryY=0;entryDx=0;entryDy=0;" edge="1" parent="1" source="P6JfIa1zerB7Pb0dLOE2-23" target="P6JfIa1zerB7Pb0dLOE2-24">
          <mxGeometry relative="1" as="geometry" />
        </mxCell>
        <mxCell id="P6JfIa1zerB7Pb0dLOE2-23" value="Lelang berakhir otomatis" style="ellipse;whiteSpace=wrap;html=1;" vertex="1" parent="1">
          <mxGeometry x="460" y="710" width="120" height="80" as="geometry" />
        </mxCell>
        <mxCell id="P6JfIa1zerB7Pb0dLOE2-31" style="edgeStyle=orthogonalEdgeStyle;rounded=0;orthogonalLoop=1;jettySize=auto;html=1;exitX=0.5;exitY=1;exitDx=0;exitDy=0;entryX=0.5;entryY=0;entryDx=0;entryDy=0;" edge="1" parent="1" source="P6JfIa1zerB7Pb0dLOE2-24" target="P6JfIa1zerB7Pb0dLOE2-25">
          <mxGeometry relative="1" as="geometry" />
        </mxCell>
        <mxCell id="P6JfIa1zerB7Pb0dLOE2-24" value="Sistem tentukan pemenang" style="ellipse;whiteSpace=wrap;html=1;" vertex="1" parent="1">
          <mxGeometry x="460" y="820" width="120" height="80" as="geometry" />
        </mxCell>
        <mxCell id="P6JfIa1zerB7Pb0dLOE2-32" style="edgeStyle=orthogonalEdgeStyle;rounded=0;orthogonalLoop=1;jettySize=auto;html=1;exitX=0.5;exitY=1;exitDx=0;exitDy=0;entryX=0.5;entryY=0;entryDx=0;entryDy=0;" edge="1" parent="1" source="P6JfIa1zerB7Pb0dLOE2-25" target="P6JfIa1zerB7Pb0dLOE2-26">
          <mxGeometry relative="1" as="geometry" />
        </mxCell>
        <mxCell id="P6JfIa1zerB7Pb0dLOE2-25" value="Pemenang melakukan pembayaran" style="ellipse;whiteSpace=wrap;html=1;" vertex="1" parent="1">
          <mxGeometry x="460" y="920" width="120" height="80" as="geometry" />
        </mxCell>
        <mxCell id="P6JfIa1zerB7Pb0dLOE2-26" value="Selesai" style="rounded=1;whiteSpace=wrap;html=1;" vertex="1" parent="1">
          <mxGeometry x="460" y="1030" width="120" height="60" as="geometry" />
        </mxCell>
      </root>
    </mxGraphModel>
  </diagram>
</mxfile>
